# xmcd CD database file
#
# Track frame offsets:
#	150
#	29125
#	61579
#	87483
#	111902
#	138090
#	160952
#	187564
#	220289
#	244630
#
# Disc length: 3490 seconds
#
# Revision: 0
# Processed by: cddbd v1.5.2PL0 Copyright (c) Steve Scherf et al.
# Submitted via: CDex 1.51
#
DISCID=810da00a
DTITLE=Andrey Klimkovsky - Life or Love
DYEAR=1900
DGENRE=New Age
TTITLE0=Одинокий Сфинкс
TTITLE1=Дорога длинною в Жизнь
TTITLE2=Ранняя оттепель
TTITLE3=Иллюзия Мечты
TTITLE4=Sunset-City
TTITLE5=Осенний костер
TTITLE6=Между Небом и Землей
TTITLE7=Innocent Dance
TTITLE8=Отпуская Птицу
TTITLE9=Последнее желание
EXTD=
EXTT0=
EXTT1=
EXTT2=
EXTT3=
EXTT4=
EXTT5=
EXTT6=
EXTT7=
EXTT8=
EXTT9=
PLAYORDER=
